<svg width="200" height="60" viewBox="0 0 200 60" fill="none" xmlns="http://www.w3.org/2000/svg">
  <!-- Dark version -->
  <g class="dark:block hidden">
    <path d="M20 15H35C40.523 15 45 19.477 45 25V35C45 40.523 40.523 45 35 45H20V15Z" fill="#3B82F6"/>
    <path d="M20 45H15V15H20V45Z" fill="#3B82F6"/>
    <path d="M55 15H70C75.523 15 80 19.477 80 25V35C80 40.523 75.523 45 70 45H55V15Z" fill="#3B82F6"/>
    <path d="M90 15H100C105.523 15 110 19.477 110 25C110 30.523 105.523 35 100 35H90V15Z" fill="#3B82F6"/>
    <path d="M90 35H100L115 45H105L90 35Z" fill="#3B82F6"/>
    <path d="M120 15H135C140.523 15 145 19.477 145 25V45H135V25C135 22.239 132.761 20 130 20H120V45H110V15H120Z" fill="#F9FAFB"/>
    <path d="M150 15H160V37.5C160 41.642 163.358 45 167.5 45C171.642 45 175 41.642 175 37.5V15H185V37.5C185 47.165 177.165 55 167.5 55C157.835 55 150 47.165 150 37.5V15Z" fill="#F9FAFB"/>
    <path d="M190 15H200L190 45H180L190 15Z" fill="#F9FAFB"/>
  </g>
  
  <!-- Light version -->
  <g class="dark:hidden block">
    <path d="M20 15H35C40.523 15 45 19.477 45 25V35C45 40.523 40.523 45 35 45H20V15Z" fill="#2563EB"/>
    <path d="M20 45H15V15H20V45Z" fill="#2563EB"/>
    <path d="M55 15H70C75.523 15 80 19.477 80 25V35C80 40.523 75.523 45 70 45H55V15Z" fill="#2563EB"/>
    <path d="M90 15H100C105.523 15 110 19.477 110 25C110 30.523 105.523 35 100 35H90V15Z" fill="#2563EB"/>
    <path d="M90 35H100L115 45H105L90 35Z" fill="#2563EB"/>
    <path d="M120 15H135C140.523 15 145 19.477 145 25V45H135V25C135 22.239 132.761 20 130 20H120V45H110V15H120Z" fill="#111827"/>
    <path d="M150 15H160V37.5C160 41.642 163.358 45 167.5 45C171.642 45 175 41.642 175 37.5V15H185V37.5C185 47.165 177.165 55 167.5 55C157.835 55 150 47.165 150 37.5V15Z" fill="#111827"/>
    <path d="M190 15H200L190 45H180L190 15Z" fill="#111827"/>
  </g>
</svg>
